<svg width="256" height="256" viewBox="0 0 256 256" fill="none" xmlns="http://www.w3.org/2000/svg">
  <defs>
    <linearGradient id="scudoBg" x1="40" y1="24" x2="216" y2="232" gradientUnits="userSpaceOnUse">
      <stop stop-color="#0B1220"/>
      <stop offset="1" stop-color="#111827"/>
    </linearGradient>
    <linearGradient id="scudoAccent" x1="56" y1="52" x2="200" y2="212" gradientUnits="userSpaceOnUse">
      <stop stop-color="#2AF5D0"/>
      <stop offset="1" stop-color="#0EA5E9"/>
    </linearGradient>
  </defs>

  <rect width="256" height="256" rx="56" fill="url(#scudoBg)"/>
  <path d="M128 30L201 62V118C201 170 168 217 128 232C88 217 55 170 55 118V62L128 30Z" stroke="url(#scudoAccent)" stroke-width="12" stroke-linecap="round" stroke-linejoin="round"/>
  <path d="M104 96L81 117L104 138M152 96L175 117L152 138M136 89L119 146" stroke="url(#scudoAccent)" stroke-width="12" stroke-linecap="round" stroke-linejoin="round"/>
  <path d="M71 188C90 209 108 223 128 232C148 223 166 209 185 188" stroke="#22D3EE" stroke-opacity="0.5" stroke-width="8" stroke-linecap="round"/>
</svg>
